<svg width="24" height="24" viewBox="0 0 24 24" fill="none" xmlns="http://www.w3.org/2000/svg">
  <path d="M14.2406 12.13C15.5856 11.351 16.5016 9.913 16.5016 8.25C16.5016 5.769 14.4826 3.75 12.0016 3.75C10.8085 3.75132 9.66467 4.22585 8.82104 5.06948C7.97742 5.91311 7.50289 7.05693 7.50156 8.25C7.50156 9.913 8.41856 11.351 9.76256 12.13C7.05456 13.063 5.10156 15.63 5.10156 18.65V20.25H6.10156V18.65C6.10156 15.396 8.74756 12.75 12.0016 12.75C15.2556 12.75 17.9016 15.396 17.9016 18.65V20.25H18.9016V18.65C18.9016 15.63 16.9476 13.063 14.2406 12.13ZM8.50156 8.25C8.50156 6.32 10.0716 4.75 12.0016 4.75C13.9316 4.75 15.5016 6.32 15.5016 8.25C15.5016 10.18 13.9316 11.75 12.0016 11.75C10.0716 11.75 8.50156 10.18 8.50156 8.25Z" fill="white"></path>
  </svg>