<svg class="modal__toggle-open icon icon-search" width="24" height="24" viewBox="0 0 24 24" fill="none" xmlns="http://www.w3.org/2000/svg">
          <path d="M20.1736 20.1748L16.2289 16.2301M16.2289 16.2301C16.9036 15.5554 17.4389 14.7543 17.8041 13.8727C18.1692 12.9911 18.3572 12.0462 18.3572 11.0919C18.3572 10.1377 18.1692 9.19277 17.8041 8.31116C17.4389 7.42955 16.9036 6.6285 16.2289 5.95374C15.5541 5.27899 14.7531 4.74374 13.8715 4.37857C12.9899 4.01339 12.045 3.82544 11.0907 3.82544C10.1365 3.82544 9.19155 4.01339 8.30994 4.37857C7.42833 4.74374 6.62728 5.27899 5.95252 5.95374C4.58979 7.31648 3.82422 9.16474 3.82422 11.0919C3.82422 13.0191 4.58979 14.8674 5.95252 16.2301C7.31525 17.5928 9.16351 18.3584 11.0907 18.3584C13.0179 18.3584 14.8662 17.5928 16.2289 16.2301Z" stroke="white" stroke-linecap="round" stroke-linejoin="round"></path>
        </svg>